<?xml version="1.0" encoding="UTF-8"?>
<svg width="1024px" height="20px" viewBox="0 0 1024 20" xmlns="http://www.w3.org/2000/svg" xmlns:xlink="http://www.w3.org/1999/xlink" version="1.1">
 <!-- Generated by Pixelmator Pro 1.6 -->
 <path id="Rectangle" d="M36 16 L44 16 44 12 36 12 Z" fill="#535353" fill-opacity="1" stroke="none"/>
 <path id="Rectangle-1" d="M92 4 L108 4 108 0 92 0 Z" fill="#535353" fill-opacity="1" stroke="none"/>
 <path id="Rectangle-2" d="M200 16 L204 16 204 12 200 12 Z" fill="#535353" fill-opacity="1" stroke="none"/>
 <path id="Rectangle-3" d="M216 8 L224 8 224 4 216 4 Z" fill="#535353" fill-opacity="1" stroke="none"/>
 <path id="Rectangle-4" d="M240 16 L252 16 252 12 240 12 Z" fill="#535353" fill-opacity="1" stroke="none"/>
 <path id="Rectangle-5" d="M348 8 L352 8 352 4 348 4 Z" fill="#535353" fill-opacity="1" stroke="none"/>
 <path id="Rectangle-6" d="M392 4 L404 4 404 0 392 0 Z" fill="#535353" fill-opacity="1" stroke="none"/>
 <path id="Rectangle-7" d="M412 12 L416 12 416 8 412 8 Z" fill="#535353" fill-opacity="1" stroke="none"/>
 <path id="Rectangle-8" d="M472 8 L476 8 476 4 472 4 Z" fill="#535353" fill-opacity="1" stroke="none"/>
 <path id="Rectangle-9" d="M548 16 L556 16 556 12 548 12 Z" fill="#535353" fill-opacity="1" stroke="none"/>
 <path id="Rectangle-10" d="M604 4 L620 4 620 0 604 0 Z" fill="#535353" fill-opacity="1" stroke="none"/>
 <path id="Rectangle-11" d="M712 16 L716 16 716 12 712 12 Z" fill="#535353" fill-opacity="1" stroke="none"/>
 <path id="Rectangle-12" d="M728 8 L736 8 736 4 728 4 Z" fill="#535353" fill-opacity="1" stroke="none"/>
 <path id="Rectangle-13" d="M752 16 L764 16 764 12 752 12 Z" fill="#535353" fill-opacity="1" stroke="none"/>
 <path id="Rectangle-14" d="M860 8 L864 8 864 4 860 4 Z" fill="#535353" fill-opacity="1" stroke="none"/>
 <path id="Rectangle-15" d="M904 4 L916 4 916 0 904 0 Z" fill="#535353" fill-opacity="1" stroke="none"/>
 <path id="Rectangle-16" d="M924 12 L928 12 928 8 924 8 Z" fill="#535353" fill-opacity="1" stroke="none"/>
 <path id="Rectangle-17" d="M984 8 L988 8 988 4 984 4 Z" fill="#535353" fill-opacity="1" stroke="none"/>
</svg>
